<svg xmlns="http://www.w3.org/2000/svg" viewBox="129.02 134.49 1094.12 162.96"><title>Birdie Blooms</title><path fill="#EFE5CC" d="M481.38 136.77C469.25 138.1 459.75 140.8 450.25 145.62C437.55 152.07 427.65 162.02 423.4 172.52L422.55 174.62L419.55 176.25C399.15 187.3 386.2 204.02 382.33 224.25C381.45 228.85 381.25 236.65 381.85 241.25C385.03 264.65 400.5 282.55 424.8 290.88C432.28 293.45 439.12 294.65 449.75 295.27C472.6 296.6 498.62 289.48 512.9 278C515.02 276.27 515.12 276.12 514.62 275.4C514.3 274.98 514.18 275.05 512.45 276.5C502.4 285.02 484.33 291.67 466 293.6C452.2 295.07 436.62 293.57 425.12 289.67C401.83 281.75 386.88 264.8 383.35 242.25C382.78 238.6 382.8 230.82 383.38 227C386.15 208.43 396.45 192.8 413.45 181.43C415.2 180.25 417.83 178.68 419.3 177.88L421.98 176.47L421.73 177.3C420.75 180.65 420.48 186.62 421.12 190.32C422.38 197.47 427.1 204.4 433.73 208.75C434.3 209.12 434.3 209.18 434 210.62C433.58 212.65 433.62 216.3 434.1 218.35C435.78 225.5 442.03 231.75 450.53 234.7C455 236.27 460.78 237.22 465.8 237.27C467.23 237.27 468.83 237.35 469.35 237.45L470.33 237.62L467.35 240.4C458.62 248.55 452.5 252.92 445.43 256.02L443.18 257.02L438.28 255.22C431.4 252.7 425 250.62 422.5 250.07C419.25 249.38 413.38 249.45 411.45 250.2C406.85 252.02 406.53 257.75 410.85 260.65C414.55 263.1 422.65 264.5 433.1 264.5C440.18 264.5 445.15 263.9 450.48 262.45L453.35 261.67L455.98 262.2C461.2 263.27 465.08 263.57 472.12 263.42C481.15 263.23 486.65 262.35 493.78 260C502.88 256.98 509 253.38 515.1 247.5C523.1 239.77 526.62 230.8 524.9 222.47C524.5 220.57 523.48 217.7 523 217.12C522.83 216.9 523.27 216.7 524.95 216.27C536.48 213.47 546.02 204.68 549.77 193.45C552.3 185.95 552.15 177.52 549.33 169.68C542.88 151.62 523.58 138.8 499.88 136.75C496.33 136.45 484.23 136.47 481.38 136.77ZM502.2 138.35C506.88 138.97 510.5 139.7 513.75 140.62C532.93 146.2 546.02 158.97 549.52 175.57C550.27 179 550.33 185.38 549.68 188.47C547.33 199.38 540.85 207.93 531.27 212.75C529.38 213.7 525.12 215.12 523.43 215.38L522.23 215.55L520.68 213.95C519.83 213.05 518.55 211.97 517.85 211.52L516.55 210.75L517.25 208.55C518.7 203.9 519.08 197.25 518.15 193.05L517.68 191L519.4 189.2C525.88 182.45 534.95 176.15 542.35 173.22L544.12 172.52L540.93 172.5L537.75 172.5L535.68 173.77C530.62 176.9 526.05 180.55 520.68 185.75C518.83 187.55 517.25 189 517.18 189C517.1 189 516.6 188.07 516.05 186.93C510.83 176.2 497.23 168.47 479 165.95C473.12 165.12 460.6 165.12 453.88 165.95C444.23 167.12 434.83 169.55 426.8 172.9C423.78 174.18 423.83 174.27 425.75 170.55C428.15 165.97 430.95 162.3 435.28 158.12C446.88 146.9 463.68 139.7 482.25 138.02C486 137.67 498.75 137.9 502.2 138.35ZM475.28 166.88C495.5 168.8 509.73 176.4 515.15 188.15L516.05 190.07L507.18 198.97C502.3 203.88 496.93 209.4 495.2 211.25C486.03 221.2 478.03 229.75 475.15 232.67L471.93 236L468.78 236C458.38 236 450.68 234.07 444.08 229.85C439.9 227.2 436.58 222.65 435.35 217.92C434.95 216.35 434.93 210.97 435.33 210.32C435.45 210.12 436.33 210.45 438.2 211.4C445.05 214.88 450.93 216.22 459.03 216.25C466.33 216.25 471.12 215.47 476.1 213.5C479.95 211.93 482.33 210.43 484.88 207.88C489.15 203.6 490.15 199.8 488.08 195.93C486.15 192.35 481.68 189.82 475.9 189.02C473.43 188.68 467.28 188.68 464.38 189.02C451.58 190.55 439.83 197.52 435.55 206.18L434.65 207.95L433.62 207.25C428.7 203.88 424.12 197.32 422.7 191.62C422.03 188.93 421.9 182.22 422.48 179.65C423.33 175.8 423.33 175.8 425.38 174.88C429.78 172.88 437.08 170.43 442.25 169.22C452.2 166.93 465.73 165.95 475.28 166.88ZM477.88 190.6C480.3 191.15 483.95 193 485.35 194.38C492.28 201.32 483.6 211.65 468.5 214.38C465.38 214.95 457.18 215.15 453.7 214.75C448.43 214.15 443.33 212.68 439 210.5C435.35 208.65 435.53 208.95 436.73 206.65C437.98 204.2 439.33 202.47 441.5 200.43C446.7 195.5 455.05 191.65 463 190.52C464.03 190.38 465.15 190.2 465.5 190.15C467.05 189.88 476.2 190.22 477.88 190.6ZM517.25 195.95C517.7 199.7 517.3 203.82 516.05 208.07L515.4 210.3L514.52 210.07C514.02 209.97 512.4 209.88 510.88 209.88C508.45 209.88 508.03 209.95 507.23 210.45C505.3 211.62 505.08 213.93 506.75 215.32C507.53 216 509.95 217 510.75 217C511.65 217 511.5 217.47 510.03 219.3C506.25 224 500.62 228.2 494.55 230.88C492.18 231.9 487.73 233.55 487.6 233.42C487.55 233.4 488.6 231.85 489.93 230C491.25 228.15 494.62 223.12 497.45 218.88C506.4 205.38 510.33 199.82 514.48 194.8C516.93 191.8 516.75 191.72 517.25 195.95ZM514.68 211.32C514.98 211.65 512.68 215.85 512.12 215.97C511.88 216 510.98 215.9 510.15 215.72C508.28 215.35 506.85 214.12 507.12 213.2C507.38 212.4 508 211.75 508.88 211.35C509.7 210.97 514.3 210.95 514.68 211.32ZM518.52 213.55C519.58 214.57 520.38 215.7 520.2 215.88C520.12 215.95 518.68 216.07 516.93 216.17L513.8 216.32L514.95 214.05L516.12 211.8L516.85 212.2C517.25 212.43 518.02 213.05 518.52 213.55ZM521.45 218.32C524.3 225.92 521.43 234.8 513.23 243.65C503.65 253.97 489.73 260.75 475.48 262.02C469.73 262.52 460.68 262.02 456.65 260.98L455.68 260.7L457.4 259.9C467.6 255.15 475.65 248.45 484.33 237.45C485.85 235.52 486.18 235.27 487.2 235C490.78 234.1 496.95 231.38 500.85 228.95C505.08 226.32 509.85 222 512 218.8L512.88 217.52L514.75 217.47C516.3 217.45 519.4 217.22 520.68 217.05C520.83 217.02 521.18 217.6 521.45 218.32ZM419.7 251.02C424.4 251.55 429.12 253.02 440.5 257.55C441.12 257.8 441.1 257.8 440.12 258.17C438.18 258.88 434.08 259.75 430.38 260.27C425.48 260.95 417.55 260.85 414.43 260.05C411.83 259.4 410.28 258.42 409.58 257C408.88 255.62 408.85 254.95 409.53 253.6C410.62 251.32 414.2 250.4 419.7 251.02ZM809.38 136.77C797.43 138.07 788.05 140.72 778.65 145.42C765.18 152.17 754.45 163.22 750.68 174.27C750.6 174.5 749.5 175.25 748.2 175.93C730.15 185.43 717.8 199.47 712.18 216.92C710.35 222.55 709.5 228.07 709.5 234.38C709.5 253.8 719.33 271.75 735.88 282.67C748.23 290.8 762.33 294.88 780.12 295.4C802.53 296.07 827.15 289.02 840.95 277.95C843.12 276.23 843.15 276.17 842.62 275.42C842.33 275 842.18 275.07 840.45 276.5C830.38 285 812.28 291.67 794 293.6C782.2 294.85 768.12 293.88 757.85 291.1C732.08 284.15 715.12 266.32 711.35 242.25C710.78 238.6 710.8 230.82 711.38 227C713.45 213.15 719.7 200.93 729.85 190.88C735.28 185.5 742.18 180.43 748.25 177.38L749.95 176.52L749.73 177.32C748.3 182.22 748.48 189.62 750.15 194.3C752 199.45 755.98 204.68 760.48 207.88C762.12 209.05 762.23 209.18 762.1 209.88C759.95 220.77 766.33 230.4 778.53 234.7C782.95 236.27 788.75 237.22 793.8 237.27C795.23 237.27 796.83 237.35 797.35 237.45L798.33 237.62L795.35 240.42C789.75 245.65 785.62 248.97 781.25 251.82C779.25 253.12 772.73 256.52 771.6 256.85C771.28 256.95 769.6 256.45 767.1 255.52C760.8 253.2 752.83 250.57 750.5 250.07C747.25 249.38 741.38 249.45 739.45 250.2C734.85 252.02 734.53 257.75 738.85 260.65C742.62 263.15 750.6 264.5 761.62 264.5C768.28 264.5 773.75 263.82 778.98 262.32L781.35 261.67L783.98 262.2C789.2 263.27 793.08 263.57 800.12 263.42C809.15 263.23 814.65 262.35 821.78 260C830.85 256.98 837.03 253.35 843.1 247.5C851.1 239.77 854.62 230.8 852.9 222.47C852.5 220.57 851.48 217.7 851 217.12C850.83 216.9 851.28 216.7 852.95 216.27C864.48 213.47 874.03 204.68 877.78 193.45C880.3 185.95 880.15 177.52 877.33 169.68C871.48 153.3 855.08 141.15 833.88 137.5C828.35 136.57 815.03 136.17 809.38 136.77ZM828 138.1C832.62 138.6 836.15 139.17 839.12 139.92C859.68 145.05 873.85 158.22 877.53 175.57C878.28 179 878.33 185.38 877.68 188.47C875.33 199.38 868.85 207.93 859.28 212.75C857.38 213.7 853.12 215.12 851.43 215.38L850.23 215.55L848.68 213.95C847.83 213.05 846.55 211.97 845.85 211.52L844.55 210.75L845.25 208.55C846.7 203.9 847.08 197.25 846.15 193.05L845.68 191L847.4 189.2C854 182.32 863.15 175.97 870.62 173.1L872.12 172.52L868.93 172.5L865.75 172.5L863.68 173.77C858.62 176.9 854.05 180.55 848.68 185.75C846.83 187.55 845.25 189 845.18 189C845.1 189 844.6 188.07 844.05 186.93C838.88 176.27 825.03 168.4 807.25 166C804.38 165.6 801.3 165.4 797.12 165.32C781.62 165 767.88 167.47 754.68 172.97C751.85 174.15 751.9 174.2 753.43 171.15C758.25 161.55 767.8 152.55 779.48 146.65C788.75 141.97 799.6 138.92 810.38 138.02C814.58 137.67 824.33 137.72 828 138.1ZM803.28 166.88C823.53 168.8 837.73 176.38 843.15 188.15L844.03 190.02L836.33 197.7C832.1 201.93 825.93 208.3 822.62 211.88C811.65 223.75 805.95 229.85 802.9 232.92L799.88 236L796.75 236C784.38 236 775.23 233.17 769.2 227.52C766.2 224.7 764.33 221.62 763.35 217.92C762.93 216.32 762.93 210.97 763.35 210.3C763.48 210.07 764.08 210.27 765.58 211.1C771.95 214.57 778.88 216.22 787.03 216.25C794.33 216.25 799.12 215.47 804.1 213.5C807.95 211.93 810.33 210.43 812.88 207.88C818.1 202.65 818.5 197.72 814.08 193.38C810.9 190.22 805.85 188.75 798.3 188.75C793.85 188.75 791.1 189.05 787.08 190C776.28 192.57 767.55 198.5 763.68 205.97C763.12 207.02 762.58 207.85 762.4 207.8C761.85 207.62 758.68 204.88 757.1 203.18C754.05 199.88 751.73 195.7 750.7 191.6C749.88 188.4 749.9 181.93 750.73 178.6C751.03 177.32 751.43 176.12 751.58 175.93C752.33 174.93 762 171.35 768.12 169.8C779.03 167 792.8 165.88 803.28 166.88ZM805.88 190.6C808.3 191.15 811.95 193 813.35 194.38C820.28 201.32 811.6 211.62 796.5 214.38C793 215.02 784.75 215.15 780.85 214.65C775.43 213.95 770.33 212.32 765.83 209.85L763.75 208.72L764.15 207.8C765.43 204.68 768.93 200.5 772.28 198.05C777.3 194.4 784.73 191.4 791 190.52C792.03 190.38 793.15 190.2 793.5 190.15C795.05 189.88 804.2 190.22 805.88 190.6ZM845.25 195.95C845.7 199.7 845.3 203.82 844.05 208.07C843.43 210.22 843.4 210.27 842.78 210.12C842.43 210.02 840.98 209.9 839.58 209.82C837.25 209.7 836.93 209.75 835.7 210.32C833.33 211.4 832.88 213.75 834.75 215.32C835.53 215.97 837.95 217 838.73 217C839.8 217 839.5 217.62 837.03 220.47C834.33 223.57 830.2 226.88 826.25 229.05C823.45 230.6 815.88 233.72 815.6 233.42C815.55 233.4 816.6 231.85 817.93 230C819.25 228.15 822.7 223.02 825.62 218.62C834.2 205.65 838.28 199.88 842.48 194.8C844.93 191.8 844.75 191.72 845.25 195.95ZM842.68 211.32C842.78 211.45 842.35 212.52 841.73 213.7C840.38 216.2 840.15 216.3 837.83 215.62C836.1 215.12 834.88 214.02 835.12 213.2C835.38 212.4 836 211.75 836.88 211.35C837.7 210.97 842.3 210.95 842.68 211.32ZM846.53 213.55C847.58 214.57 848.38 215.7 848.2 215.88C848.12 215.95 846.65 216.07 844.93 216.17L841.75 216.32L842.95 214.05L844.12 211.8L844.85 212.2C845.25 212.45 846.03 213.05 846.53 213.55ZM849.48 218.35C851.65 224.2 850.43 230.85 845.93 237.7C838.43 249.07 824.48 258.15 809.83 261.1C802.35 262.62 790.73 262.57 784.65 260.98L783.68 260.7L785.4 259.9C795.6 255.15 803.65 248.45 812.33 237.45C813.85 235.52 814.18 235.27 815.2 235C819 234.05 825.7 231.02 829.5 228.55C833.48 225.97 837.7 222.05 839.95 218.82L840.88 217.5L842.75 217.47C844.3 217.45 847.4 217.22 848.68 217.05C848.83 217.02 849.2 217.6 849.48 218.35ZM747.7 251.02C749.03 251.17 751.03 251.5 752.15 251.75C754.1 252.22 761.93 254.9 765.88 256.5C766.98 256.95 768.15 257.42 768.5 257.55C769.12 257.8 769.12 257.8 768.12 258.17C766.62 258.73 762.45 259.65 759.38 260.15C755.3 260.8 745.68 260.8 742.8 260.15C740.05 259.52 738.3 258.48 737.58 257C736.88 255.62 736.85 254.95 737.53 253.6C738.62 251.32 742.2 250.4 747.7 251.02ZM936.95 150.17C932 155.75 863.58 233.05 859.25 238C853.93 244.05 851 250.12 851 255.1C851 259.38 853.48 261 858.18 259.8C863.33 258.5 869.45 254.38 876.85 247.22L880.2 243.97L879.33 246.05C877.28 250.92 877.1 255.8 878.88 258.52C880.58 261.15 884.43 260.5 890.5 256.55C893.62 254.52 897.98 251.15 901.35 248.1L904.33 245.42L904.8 246.42C905.45 247.8 906.75 248.5 908.68 248.5C911.5 248.5 914.03 247.3 918.05 244.02L920.2 242.27L919.15 244.35C915.75 251 915.83 257.98 919.3 259.7C920.35 260.23 920.55 260.25 922.1 259.98C925.95 259.32 932.93 254.77 940.35 248.1L943.33 245.42L943.8 246.42C944.55 248 945.83 248.6 948.25 248.45C952.4 248.2 955.12 246.22 965.5 235.75C969.83 231.4 974.45 226.97 975.75 225.95C984.55 219 990.5 217.15 990.5 221.32C990.5 224.65 981.65 235.47 970.38 245.97C964.6 251.38 961 254.4 955.38 258.6C954.93 258.95 955.43 258.98 960.28 259L965.68 259L971.28 252.8C978.98 244.3 991.08 231.47 993.3 229.5C999.9 223.6 1005.3 220.1 1008.23 219.8C1010.78 219.57 1011.53 221.55 1010 224.52C1006.33 231.75 990.98 248.27 979.75 257.1C978.73 257.92 977.78 258.67 977.65 258.8C977.5 258.9 979.6 259 982.3 259L987.2 259L993.15 252.3C1011.62 231.52 1027.9 218.3 1033.17 219.72C1034.4 220.05 1034.83 220.75 1034.62 222.02C1034.25 224.17 1031.42 227.3 1023.12 234.75C1013.4 243.45 1009.55 248.25 1008.58 252.85C1007.85 256.42 1009.45 259.5 1012.4 260.12C1015.3 260.73 1021.73 257.35 1029.5 251.15C1033.1 248.27 1042.62 238.85 1043.12 237.67C1043.48 236.85 1054.15 225.15 1059.95 219.25L1063.25 215.88L1062.73 217.25C1061.95 219.3 1061.55 221.72 1061.38 225.75C1061.3 227.75 1061.05 230.45 1060.85 231.75C1060.05 236.65 1057.6 242.4 1054.38 246.88C1052.58 249.4 1048.42 253.7 1047.65 253.88C1047.35 253.95 1045.33 254.1 1043.12 254.25C1035.98 254.7 1031.5 256.3 1031.5 258.45C1031.5 259.92 1032.88 260.35 1036.5 260C1041.58 259.48 1046.05 257.9 1050.5 255.05C1051.25 254.57 1052.8 253.85 1053.95 253.47C1057.8 252.17 1062.12 249.72 1066.25 246.52C1068.78 244.57 1075.5 238.07 1075.5 237.57C1075.5 236.77 1074.6 237.47 1070.98 241.07C1066.98 245.05 1064.4 247.15 1060.98 249.27C1059.28 250.32 1055.35 252.25 1054.9 252.25C1054.83 252.25 1056.08 250.92 1057.7 249.3C1065.85 241.2 1068.3 233.55 1066.35 222.38C1064.95 214.4 1065.2 213.52 1070.23 208.9C1072.15 207.15 1074.4 205.15 1075.28 204.47C1076.15 203.77 1076.98 203.1 1077.12 202.97C1077.25 202.85 1076.23 202.75 1074.62 202.75L1071.88 202.77L1070.42 204.7C1067.25 208.9 1057.58 220.02 1046.4 232.32C1044.05 234.92 1042 237.35 1041.85 237.72C1041.45 238.65 1034.33 245.82 1030.9 248.75C1023.15 255.32 1016.6 259.25 1013.38 259.25C1011.8 259.23 1011.28 259 1010.8 258.07C1009.58 255.77 1012.1 252.25 1019.68 245.72C1030.25 236.62 1032.75 234.15 1035.3 230.27C1038.45 225.47 1038.17 220.85 1034.62 219.22C1031.75 217.9 1027.53 219.52 1020.5 224.7C1016.48 227.67 1007.15 235.88 1002.88 240.22C1001.93 241.2 1000.95 242 1000.7 242C1000.05 242 1000.15 241.7 1001.03 240.85C1002.2 239.75 1006.03 235.3 1007.58 233.2C1012.98 226.02 1013.65 219.5 1009.05 219.05C1004.15 218.6 996.03 224.52 984.62 236.85C981.12 240.65 979.73 242 979.3 242C978.83 242 979.23 241.45 981.62 238.82C988.8 231 991.33 226.97 991.88 222.6C992.18 220.22 990.93 218.52 988.75 218.3C987.18 218.15 985.68 218.55 983.18 219.77C978.58 222.02 974.68 225.3 964.93 235.07C956.73 243.27 954.35 245.35 951.33 246.92C949.62 247.8 947.75 248.02 946.75 247.5C945.93 247.05 945.62 245.52 946.08 243.97C946.53 242.47 947.15 241.67 952.8 235.57C957.15 230.88 959.73 227.67 960.93 225.4C961.73 223.88 961.85 223.4 961.88 221.95C961.88 219.05 960.65 218.32 956.15 218.57C949.18 218.97 941.05 222.47 933.12 228.45C931.62 229.6 927.98 232.97 923.98 237C915.6 245.38 912.33 247.75 909.23 247.75C907.85 247.75 907.33 247.4 906.98 246.27C906.75 245.5 906.78 245.07 907.08 243.97C907.53 242.47 908.15 241.67 913.8 235.57C918.15 230.88 920.73 227.67 921.93 225.4C922.73 223.88 922.85 223.4 922.88 221.97C922.88 220.1 922.5 219.45 921.08 218.85C919.3 218.1 913.7 218.67 909.5 220.05C900.75 222.9 890.8 230.02 883.95 238.35C876.12 247.82 865.38 256.62 859.08 258.73C857.55 259.23 855.45 259.4 854.62 259.1C853.43 258.62 853.18 256.05 854.1 253.42C855.75 248.82 859.6 243.7 871.75 230C875 226.35 886 213.93 896.25 202.38C921 174.4 923.18 172.05 933.23 162C941.7 153.52 945.83 149.77 948.43 148.17C949.15 147.72 949.75 147.3 949.75 147.17C949.75 147.07 947.5 147 944.78 147L939.78 147L936.95 150.17ZM920.95 220.25C922.8 221.4 921.7 224.8 917.88 229.55L915.73 232.25L913.12 232.25L910.55 232.25L909.5 233.42C906.68 236.62 904.5 240.85 904.5 243.1C904.5 243.97 903.2 245.38 898.78 249.22C890 256.88 882.78 260.6 880.38 258.7C879.73 258.2 879.7 258.07 879.8 256.48C880.1 250.85 889.95 238.82 902.5 228.7C911.1 221.75 918.12 218.52 920.95 220.25ZM959.95 220.25C960.45 220.55 960.75 220.95 960.78 221.3C960.9 223.92 959.8 226.07 956.15 230.42L954.65 232.25L952.1 232.25L949.55 232.25L948.5 233.42C945.65 236.65 943.5 240.85 943.5 243.12C943.5 243.85 943.2 244.25 941.2 246.12C931.05 255.7 922.1 260.85 919.38 258.7C918.73 258.2 918.7 258.07 918.8 256.48C919.1 250.85 929.1 238.65 941.73 228.5C950.28 221.62 957.12 218.52 959.95 220.25ZM1045.12 255.8C1041.55 258.05 1037.55 259.32 1034.5 259.2C1031.7 259.07 1031.53 258.02 1034.08 256.73C1035.75 255.85 1040.48 255.1 1044.5 255.05L1046.38 255L1045.12 255.8ZM675.12 167.68C658.2 186.85 650 196.12 631.8 216.7C627.62 221.4 624.18 225.25 624.1 225.25C624.05 225.25 624.18 224.88 624.43 224.42C625.05 223.22 625.03 220.47 624.38 219.75C623.15 218.38 620.1 218.12 615.68 219C605.45 221.05 594.6 228.1 586 238.25C579.45 245.97 569.25 254.38 562.1 257.92C560.15 258.9 559.5 259.1 557.93 259.2C556.25 259.3 556.05 259.25 555.35 258.67C554.7 258.12 554.62 257.88 554.62 256.7C554.68 253.35 557.62 250.05 567.38 242.47C575.77 235.95 578.33 233.62 580.8 230.22C583.2 226.92 583.88 222.9 582.43 220.7C581 218.57 576.43 217.62 572.62 218.72C571.68 219 570.85 219.17 570.8 219.15C570.52 218.88 584.18 206.05 587.5 203.45L588.38 202.77L585.62 202.77L582.88 202.77L581.62 204.45C576.55 211.22 550.48 240.38 543.83 246.75C536.08 254.15 529.12 258.9 525.62 259.2C524.15 259.3 524.02 259.27 523.65 258.67C521.73 255.77 524.52 251.27 535.27 240C544.33 230.5 551 224.3 555.2 221.47L557.05 220.25L552.08 220.25L547.1 220.25L543.2 224.42C528.73 240 522.27 249.07 521.38 255.12C521.12 256.73 521.4 257.88 522.27 258.88C524.23 261.07 527.5 260.38 533.33 256.52C539.68 252.32 545.35 246.97 555.85 235.38C559.58 231.27 564.08 226.35 565.83 224.45L569.05 221L570.95 220.4C574.45 219.32 576.88 219.35 577.5 220.5C578.23 221.85 577.45 224.4 575.55 226.75C575.08 227.38 570.77 231.75 566 236.5C557.23 245.22 555 247.77 553.5 250.85C552.6 252.65 552.1 255.2 552.35 256.55C552.65 258.25 554.4 259.73 556.5 260.07C560.65 260.82 569.73 255.35 580.2 245.8L582.2 243.97L581.35 246.05C580.15 248.85 579.7 250.95 579.7 253.62C579.7 259.3 582.4 261.12 587.62 259.05C592.25 257.23 599.8 251.57 607.1 244.5C608.6 243.05 609.73 242.05 609.6 242.25C609.5 242.45 608.8 243.52 608.05 244.62C604.95 249.22 602.9 254.67 603.35 257.07C603.58 258.32 604.8 259.67 606 260C609.68 261 618.3 255.85 627.88 246.97C629.48 245.5 629.75 245.3 629.33 246C625.93 251.65 624.68 255.45 625.53 257.67C625.93 258.75 627 259.73 628.05 260.02C631.58 260.95 640.03 255.62 649.1 246.75C652.5 243.42 653 243.02 652.6 243.88C649.73 250.38 650.33 256.4 654.08 258.92C655.7 260.02 657.3 260.32 659.9 260C665.93 259.25 674.23 254.85 682.75 247.9C685.25 245.85 693.25 237.97 693.25 237.55C693.25 236.7 692.08 237.57 689.38 240.4C680.8 249.47 670.9 256.23 662.65 258.6C659.65 259.48 656.7 259.5 655.48 258.67C653.85 257.57 653.68 255.32 655 251.75C656.05 248.82 659.6 243.2 662.33 240.17L663.38 238.97L665.88 238.7C678.28 237.4 693.18 228.7 693.9 222.32C694.48 217.4 685.08 217.57 674.93 222.67C667.95 226.15 662.93 230.17 657.18 236.88C653.5 241.15 645.73 248.92 642.5 251.57C636.62 256.38 632.15 259 629.53 259.2C628.12 259.3 628.03 259.27 627.58 258.6C625.48 255.38 629.6 249.62 645.23 233.97C652.43 226.8 655.83 223.75 659.2 221.47L661.05 220.25L656.05 220.25L651.08 220.25L647.2 224.42C641.88 230.2 639.38 233.02 635.85 237.25C626.73 248.2 612.4 259.25 607.33 259.25C605.4 259.25 604.73 257.9 605.38 255.4C606.15 252.45 608.58 249.12 616.43 240.38C623.08 232.92 650.78 201.65 661.45 189.5C674.65 174.52 679.65 169.1 687.38 161.35C695.15 153.57 699.78 149.45 702.53 147.88L703.62 147.25L698.38 147.25L693.12 147.25L675.12 167.68ZM622.95 220.25C624.75 221.35 623.7 224.8 620.18 229.17C617.75 232.2 612.83 237.65 609.25 241.25C597.05 253.5 585.48 260.92 582.4 258.48C581.73 257.95 581.7 257.82 581.8 256.32C582.27 248.67 602.02 228.1 615.1 221.6C618.88 219.72 621.38 219.3 622.95 220.25ZM691.75 220.5C692.08 220.82 692.25 221.32 692.25 222C692.25 226.67 681.8 233.95 671.28 236.62C668.75 237.25 664.75 237.85 664.53 237.6C664.3 237.4 672.18 229.75 674.75 227.72C681.35 222.45 686.03 220.02 689.58 220C690.93 220 691.35 220.1 691.75 220.5ZM576.33 189C572.18 190.88 567.05 196.1 567.3 198.2C567.38 198.82 567.48 198.88 568.52 198.95C570.05 199.05 571.85 198.32 574.23 196.65C578.12 193.88 580.75 190.4 579.98 188.97C579.65 188.32 577.73 188.35 576.33 189ZM680.33 189C676.18 190.88 671.05 196.1 671.3 198.2C671.38 198.8 671.5 198.88 672.38 198.95C673.88 199.07 675.35 198.55 677.58 197.07C681.9 194.2 684.8 190.5 683.98 188.97C683.65 188.32 681.73 188.35 680.33 189Z"/><path fill="#C7C25B" d="M132.88 215.3C130.53 216.6 130.7 218.82 133.25 220.12C135.8 221.42 136.72 222.85 135.9 224.12C135.03 225.45 133.03 224.67 131.72 222.57C131.08 221.52 130.88 221.8 131.12 223.4C131.28 224.4 131.4 224.57 132.2 224.92C133.43 225.42 135.78 225.25 136.7 224.57C137.08 224.3 137.53 223.62 137.72 223.07C138.22 221.67 137.62 220.7 135.53 219.47C133.08 218.05 132.3 216.95 133.08 215.88C133.88 214.8 136.4 215.72 136.9 217.3C137.15 218.15 137.53 217.75 137.45 216.7C137.4 215.85 137.25 215.57 136.75 215.32C135.97 214.93 133.55 214.93 132.88 215.3ZM159.62 219.05C157.65 223.75 157.25 224.4 156.18 224.72C155.55 224.9 155.9 224.95 157.75 224.95C159.05 224.95 159.9 224.88 159.62 224.82C158.33 224.5 158.2 223.7 159.12 221.62L159.73 220.22L160.93 220.3L162.12 220.38L162.93 222C163.88 223.95 163.93 224.45 163.2 224.75C162.8 224.9 163.38 224.97 165.12 224.97C167.48 224.97 167.58 224.95 166.83 224.62C166.03 224.27 165.45 223.25 162.5 216.8C162.05 215.82 161.6 215 161.5 215C161.4 215 160.55 216.82 159.62 219.05ZM161.48 219.95C161.23 220 160.73 220 160.4 219.95L159.78 219.88L160.33 218.65L160.85 217.4L161.4 218.65C161.93 219.82 161.93 219.88 161.48 219.95ZM173.88 215.3C171.53 216.6 171.7 218.82 174.25 220.12C176.8 221.42 177.73 222.85 176.9 224.12C176.03 225.45 174.03 224.67 172.73 222.57C172.08 221.52 171.88 221.8 172.12 223.4C172.28 224.4 172.4 224.57 173.2 224.92C174.43 225.42 176.78 225.25 177.7 224.57C178.08 224.3 178.53 223.62 178.73 223.07C179.23 221.67 178.62 220.7 176.53 219.47C174.08 218.05 173.3 216.95 174.08 215.88C174.88 214.8 177.4 215.72 177.9 217.3C178.15 218.15 178.53 217.75 178.45 216.7C178.4 215.85 178.25 215.57 177.75 215.32C176.98 214.93 174.55 214.93 173.88 215.3ZM187.38 215.52C185.28 216.57 184.25 218.07 184.25 220.17C184.25 222.57 186.05 224.77 188.33 225.1C193.48 225.88 196.8 220.07 193.3 216.42C191.9 214.95 189.3 214.55 187.38 215.52ZM190.78 216.07C192.9 217.47 193.4 221.88 191.68 223.9C190.88 224.82 189.15 225 188.18 224.25C186.75 223.12 186 220.57 186.38 218.1C186.73 215.72 188.83 214.75 190.78 216.07ZM218.12 219.05C216.15 223.75 215.75 224.4 214.68 224.72C214.05 224.9 214.4 224.95 216.25 224.95C217.55 224.95 218.4 224.88 218.12 224.82C216.83 224.5 216.7 223.7 217.62 221.62L218.23 220.22L219.43 220.3L220.62 220.38L221.43 222C222.38 223.95 222.43 224.45 221.7 224.75C221.3 224.9 221.88 224.97 223.62 224.97C225.98 224.97 226.08 224.95 225.33 224.62C224.53 224.27 223.95 223.25 221 216.8C220.55 215.82 220.1 215 220 215C219.9 215 219.05 216.82 218.12 219.05ZM219.98 219.95C219.73 220 219.23 220 218.9 219.95L218.28 219.88L218.83 218.65L219.35 217.4L219.9 218.65C220.43 219.82 220.43 219.88 219.98 219.95ZM280.88 215.52C278.78 216.57 277.75 218.07 277.75 220.17C277.75 222.57 279.55 224.77 281.82 225.1C286.98 225.88 290.3 220.07 286.8 216.42C285.4 214.95 282.8 214.55 280.88 215.52ZM284.28 216.07C286.4 217.47 286.9 221.88 285.18 223.9C284.38 224.82 282.65 225 281.68 224.25C280.25 223.12 279.5 220.57 279.88 218.1C280.23 215.72 282.32 214.75 284.28 216.07ZM341.38 215.3C339.03 216.6 339.2 218.82 341.75 220.12C344.3 221.42 345.23 222.85 344.4 224.12C343.53 225.45 341.53 224.67 340.23 222.57C339.58 221.52 339.38 221.8 339.62 223.4C339.78 224.4 339.9 224.57 340.7 224.92C341.93 225.42 344.28 225.25 345.2 224.57C345.58 224.3 346.03 223.62 346.23 223.07C346.73 221.67 346.12 220.7 344.03 219.47C341.58 218.05 340.8 216.95 341.58 215.88C342.38 214.8 344.9 215.72 345.4 217.3C345.65 218.15 346.03 217.75 345.95 216.7C345.9 215.85 345.75 215.57 345.25 215.32C344.48 214.93 342.05 214.93 341.38 215.3ZM1202.08 215.4C1198.15 216.8 1197.55 222.15 1201.05 224.32C1202.48 225.2 1205.42 225.5 1207.25 224.95L1208.38 224.6L1208.3 223.07C1208.23 221.8 1208.28 221.5 1208.67 221.27C1209.03 221.07 1208.62 221.02 1207 221.02C1204.88 221.05 1204.78 221.07 1206.1 221.38C1206.78 221.52 1206.8 221.57 1206.7 222.75C1206.53 224.55 1206.2 224.82 1204.4 224.7C1203.1 224.6 1202.83 224.5 1202.1 223.7C1200 221.4 1200.45 216.8 1202.9 215.62C1204.35 214.95 1205.62 215.3 1207.08 216.8C1208.3 218.12 1208.45 218.05 1208.1 216.3C1207.98 215.72 1207.75 215.45 1207.17 215.27C1206.12 214.9 1203.33 214.97 1202.08 215.4ZM1216.12 215.3C1213.78 216.6 1213.95 218.82 1216.5 220.12C1219.05 221.42 1219.98 222.85 1219.15 224.12C1218.28 225.45 1216.28 224.67 1214.98 222.57C1214.33 221.52 1214.12 221.8 1214.38 223.4C1214.53 224.4 1214.65 224.57 1215.45 224.92C1216.67 225.42 1219.03 225.25 1219.95 224.57C1220.33 224.3 1220.78 223.62 1220.98 223.07C1221.48 221.67 1220.88 220.7 1218.78 219.47C1216.33 218.05 1215.55 216.95 1216.33 215.88C1217.12 214.8 1219.65 215.72 1220.15 217.3C1220.4 218.15 1220.78 217.75 1220.7 216.7C1220.65 215.85 1220.5 215.57 1220 215.32C1219.23 214.93 1216.8 214.93 1216.12 215.3ZM143.5 215.47L144.12 215.65L144.2 220.05L144.25 224.45L143.58 224.7C143.05 224.9 143.88 224.97 146.9 224.97L150.93 225L151.08 223.67C151.2 222.42 151.05 221.77 150.83 222.45C150.3 223.9 148.08 225.1 146.88 224.55C146.28 224.27 146.25 224.15 146.25 222.22L146.25 220.2L147.95 220.27C149.3 220.35 149.62 220.3 149.62 220C149.62 219.7 149.3 219.65 147.93 219.72L146.22 219.8L146.3 217.72L146.38 215.62L147.45 215.55C148.45 215.47 148.62 215.55 149.53 216.5L150.5 217.52L150.5 216.38L150.5 215.25L146.7 215.27C144.6 215.3 143.15 215.38 143.5 215.47ZM199.75 215.7L200.62 216.12L200.7 219.38C200.8 223.45 200.68 224.15 199.8 224.62C199.15 224.97 199.2 224.97 201 224.97C202.33 224.97 202.73 224.9 202.33 224.75C201.38 224.38 201.23 223.7 201.3 220.27L201.38 217.07L204.88 221.15C206.8 223.38 208.45 225.22 208.58 225.22C208.68 225.25 208.75 223.32 208.75 220.97C208.75 216.52 208.88 215.88 209.83 215.5C210.23 215.35 209.83 215.27 208.5 215.27C207.18 215.27 206.78 215.35 207.18 215.5C208.1 215.88 208.28 216.57 208.2 219.5L208.12 222.25L205.12 218.75L202.12 215.25L200.5 215.25L198.88 215.25L199.75 215.7ZM230.75 215.57L231.38 215.9L231.38 220.12L231.38 224.35L230.75 224.67C230.23 224.95 230.8 225 234.4 225L238.68 225L238.85 223.45C238.93 222.6 238.95 221.88 238.9 221.8C238.83 221.75 238.55 222.15 238.28 222.72C237.65 223.95 236.53 224.57 235.03 224.57C233.35 224.57 233.25 224.3 233.25 220C233.25 216.17 233.38 215.65 234.38 215.43C234.65 215.35 233.8 215.3 232.5 215.27C230.43 215.25 230.2 215.3 230.75 215.57ZM252.5 215.47L253.12 215.65L253.2 220.05L253.25 224.45L252.58 224.7C252.03 224.9 252.5 224.95 254.62 224.95C256.15 224.92 257.05 224.88 256.62 224.82C255.4 224.62 255.25 224.35 255.25 222.3L255.25 220.42L256.88 220.57C258.38 220.72 258.5 220.7 258.5 220.25C258.5 219.8 258.38 219.77 256.88 219.92L255.23 220.07L255.3 217.85L255.38 215.62L256.43 215.55C257.7 215.45 258.38 215.77 259 216.82L259.5 217.62L259.5 216.42L259.5 215.25L255.7 215.27C253.6 215.3 252.15 215.38 252.5 215.47ZM264.75 215.57L265.38 215.9L265.38 220.12L265.38 224.35L264.75 224.67C264.23 224.95 264.8 225 268.4 225L272.68 225L272.85 223.45C272.93 222.6 272.95 221.88 272.9 221.8C272.82 221.75 272.55 222.15 272.28 222.72C271.65 223.95 270.53 224.57 269.03 224.57C267.35 224.57 267.25 224.3 267.25 220C267.25 216.17 267.38 215.65 268.38 215.43C268.65 215.35 267.8 215.3 266.5 215.27C264.43 215.25 264.2 215.3 264.75 215.57ZM292.7 215.5C293.1 215.68 293.85 217 295.48 220.38C296.7 222.92 297.82 225 297.98 225C298.1 225 298.3 224.75 298.4 224.45C298.48 224.15 298.9 223.17 299.3 222.27L300.05 220.62L301.15 222.8C301.75 224.02 302.35 225 302.48 225C302.57 225 303.38 223.2 304.25 221C305.85 216.88 306.43 215.88 307.35 215.5C307.73 215.35 307.35 215.27 306.12 215.27C304.82 215.27 304.48 215.32 304.82 215.52C305.48 215.9 305.35 216.7 304.2 219.77L303.15 222.57L302.15 220.55L301.15 218.52L301.75 217.22C302.18 216.32 302.6 215.82 303.12 215.6C303.88 215.27 303.88 215.27 302.6 215.25C301.35 215.25 301.35 215.27 301.43 215.93C301.5 216.32 301.4 216.95 301.25 217.38L300.95 218.12L300.32 216.9C299.82 215.93 299.78 215.65 300.05 215.47C300.25 215.35 299.68 215.25 298.62 215.25C297.3 215.27 296.98 215.32 297.32 215.52C297.73 215.75 299.75 219.45 299.75 219.97C299.75 220.07 299.5 220.72 299.23 221.4L298.68 222.6L297.1 219.5C295.48 216.27 295.28 215.62 295.82 215.43C295.98 215.35 295.23 215.3 294.12 215.27C292.68 215.27 292.28 215.35 292.7 215.5ZM312 215.47L312.62 215.65L312.7 220.05L312.75 224.45L312.08 224.7C311.55 224.9 312.38 224.97 315.4 224.97L319.43 225L319.58 223.67C319.7 222.42 319.55 221.77 319.33 222.45C318.8 223.9 316.58 225.1 315.38 224.55C314.78 224.27 314.75 224.15 314.75 222.22L314.75 220.2L316.45 220.27C317.8 220.35 318.12 220.3 318.12 220C318.12 219.7 317.8 219.65 316.43 219.72L314.73 219.8L314.8 217.72L314.88 215.62L315.95 215.55C316.95 215.47 317.12 215.55 318.03 216.5L319 217.52L319 216.38L319 215.25L315.2 215.27C313.1 215.3 311.65 215.38 312 215.47ZM325.25 215.47L325.88 215.65L325.95 220.05L326 224.45L325.33 224.7C324.78 224.9 325.15 224.95 327.12 224.95C328.5 224.95 329.4 224.88 329.12 224.82C328.15 224.57 328 224.25 328 222.22L328 220.25L328.7 220.25C329.25 220.25 329.5 220.42 329.73 220.92C329.9 221.32 330.55 222.38 331.18 223.3L332.3 225L334.08 224.97C335.08 224.95 335.65 224.88 335.38 224.82C334.43 224.6 333.23 223.45 332.08 221.72L330.93 219.97L331.73 219.15C332.75 218.1 332.98 216.85 332.3 216C331.8 215.4 331.7 215.38 328.2 215.32C326.25 215.3 324.9 215.35 325.25 215.47ZM330.25 216C330.9 216.65 330.93 218.47 330.33 219.22C330.08 219.52 329.45 219.82 328.95 219.92L328 220.07L328 218.07C328 216.88 328.12 215.97 328.3 215.8C328.75 215.35 329.7 215.45 330.25 216ZM1111.2 215.5C1111.6 215.68 1112.35 217 1113.98 220.38C1115.2 222.92 1116.33 225 1116.48 225C1116.6 225 1116.8 224.75 1116.9 224.45C1116.98 224.15 1117.4 223.17 1117.8 222.27L1118.55 220.62L1119.65 222.8C1120.25 224.02 1120.85 225 1120.98 225C1121.08 225 1121.88 223.2 1122.75 221C1124.35 216.88 1124.92 215.88 1125.85 215.5C1126.23 215.35 1125.85 215.27 1124.62 215.27C1123.33 215.27 1122.98 215.32 1123.33 215.52C1123.98 215.9 1123.85 216.7 1122.7 219.77L1121.65 222.57L1120.65 220.55L1119.65 218.52L1120.25 217.22C1120.67 216.32 1121.1 215.82 1121.62 215.6C1122.38 215.27 1122.38 215.27 1121.1 215.25C1119.85 215.25 1119.85 215.27 1119.92 215.93C1120 216.32 1119.9 216.95 1119.75 217.38L1119.45 218.12L1118.83 216.9C1118.33 215.93 1118.28 215.65 1118.55 215.47C1118.75 215.35 1118.17 215.25 1117.12 215.25C1115.8 215.27 1115.48 215.32 1115.83 215.52C1116.23 215.75 1118.25 219.45 1118.25 219.97C1118.25 220.07 1118 220.72 1117.73 221.4L1117.17 222.6L1115.6 219.5C1113.98 216.27 1113.78 215.62 1114.33 215.43C1114.48 215.35 1113.73 215.3 1112.62 215.27C1111.17 215.27 1110.78 215.35 1111.2 215.5ZM1130.5 215.47L1131.12 215.65L1131.2 220.05L1131.25 224.45L1130.58 224.7C1130.05 224.9 1130.88 224.97 1133.9 224.97L1137.92 225L1138.08 223.67C1138.2 222.42 1138.05 221.77 1137.83 222.45C1137.3 223.9 1135.08 225.1 1133.88 224.55C1133.28 224.27 1133.25 224.15 1133.25 222.22L1133.25 220.2L1134.95 220.27C1136.3 220.35 1136.62 220.3 1136.62 220C1136.62 219.7 1136.3 219.65 1134.92 219.72L1133.23 219.8L1133.3 217.72L1133.38 215.62L1134.45 215.55C1135.45 215.47 1135.62 215.55 1136.53 216.5L1137.5 217.52L1137.5 216.38L1137.5 215.25L1133.7 215.27C1131.6 215.3 1130.15 215.38 1130.5 215.47ZM1143.75 215.47L1144.38 215.65L1144.45 220.05L1144.5 224.45L1143.83 224.7C1143.28 224.9 1143.9 224.97 1146.45 224.97C1149.33 225 1149.9 224.92 1150.9 224.47C1154.6 222.72 1154.6 217.4 1150.88 215.72C1150.05 215.35 1149.28 215.27 1146.5 215.27C1144.65 215.3 1143.4 215.38 1143.75 215.47ZM1150.03 216.15C1151.03 217.05 1151.55 218.45 1151.55 220.25C1151.55 223.07 1150.38 224.6 1148.23 224.6C1147.4 224.6 1146.88 224.47 1146.73 224.22C1146.38 223.65 1146.45 216.17 1146.83 215.77C1147.25 215.32 1149.38 215.57 1150.03 216.15ZM1159 215.47L1159.62 215.65L1159.7 220.05L1159.75 224.45L1159.08 224.7C1158.53 224.9 1159.15 224.97 1161.7 224.97C1164.58 225 1165.15 224.92 1166.15 224.47C1169.85 222.72 1169.85 217.4 1166.12 215.72C1165.3 215.35 1164.53 215.27 1161.75 215.27C1159.9 215.3 1158.65 215.38 1159 215.47ZM1165.28 216.15C1166.28 217.05 1166.8 218.45 1166.8 220.25C1166.8 223.07 1165.62 224.6 1163.48 224.6C1162.65 224.6 1162.12 224.47 1161.98 224.22C1161.62 223.65 1161.7 216.17 1162.08 215.77C1162.5 215.32 1164.62 215.57 1165.28 216.15ZM1174.38 215.43C1175.45 215.7 1175.5 215.9 1175.5 220.12C1175.5 224.35 1175.45 224.55 1174.38 224.82C1174.1 224.88 1175 224.95 1176.38 224.95C1177.75 224.95 1178.65 224.9 1178.38 224.82C1177.38 224.6 1177.25 224.07 1177.25 220.12C1177.25 216.17 1177.38 215.65 1178.38 215.43C1178.65 215.35 1177.75 215.3 1176.38 215.3C1175 215.3 1174.1 215.38 1174.38 215.43ZM1183.5 215.7L1184.38 216.12L1184.45 219.38C1184.55 223.45 1184.42 224.15 1183.55 224.62C1182.9 224.97 1182.95 224.97 1184.75 224.97C1186.08 224.97 1186.48 224.9 1186.08 224.75C1185.12 224.38 1184.98 223.7 1185.05 220.27L1185.12 217.07L1188.62 221.15C1190.55 223.38 1192.2 225.22 1192.33 225.22C1192.42 225.25 1192.5 223.32 1192.5 220.97C1192.5 216.52 1192.62 215.88 1193.58 215.5C1193.98 215.35 1193.58 215.27 1192.25 215.27C1190.92 215.27 1190.53 215.35 1190.92 215.5C1191.85 215.88 1192.03 216.57 1191.95 219.5L1191.88 222.25L1188.88 218.75L1185.88 215.25L1184.25 215.25L1182.62 215.25L1183.5 215.7ZM333.25 247.9C332.53 248.3 326.43 248.4 325.43 248.02C324.83 247.8 324.8 247.8 324.7 249.32C324.62 250.17 324.6 250.9 324.65 250.95C324.68 251 324.9 250.62 325.15 250.12C325.62 249.1 326.93 248.38 327.78 248.62C328.23 248.77 328.25 249.05 328.25 253.12L328.25 257.48L327.45 257.73C326.83 257.9 327.28 257.95 329.38 257.95C330.9 257.92 331.83 257.88 331.45 257.82C330.3 257.65 330.23 257.35 330.3 253C330.38 248.3 330.48 248.07 332.15 248.9C332.85 249.25 333.2 249.6 333.38 250.17C333.75 251.5 334 251.12 334 249.25C334 248.27 333.98 247.5 333.95 247.52C333.9 247.55 333.6 247.7 333.25 247.9ZM1199.25 247.9C1198.53 248.3 1192.42 248.4 1191.42 248.02C1190.83 247.8 1190.8 247.8 1190.7 249.32C1190.62 250.17 1190.6 250.9 1190.65 250.95C1190.67 251 1190.9 250.62 1191.15 250.12C1191.62 249.1 1192.92 248.38 1193.78 248.62C1194.23 248.77 1194.25 249.05 1194.25 253.12L1194.25 257.48L1193.45 257.73C1192.83 257.9 1193.28 257.95 1195.38 257.95C1196.9 257.92 1197.83 257.88 1197.45 257.82C1196.3 257.65 1196.23 257.35 1196.3 253C1196.38 248.3 1196.48 248.07 1198.15 248.9C1198.85 249.25 1199.2 249.6 1199.38 250.17C1199.75 251.5 1200 251.12 1200 249.25C1200 248.27 1199.98 247.5 1199.95 247.52C1199.9 247.55 1199.6 247.7 1199.25 247.9ZM215.85 248.25C214.38 248.85 213.88 250.65 214.73 252.3L215.18 253.22L214.35 254.02C212.83 255.5 212.8 256.82 214.3 257.75C215.3 258.35 216.45 258.38 218.25 257.85C219.25 257.55 219.73 257.52 220.18 257.73C220.5 257.88 221.48 258 222.33 257.98L223.88 257.95L223 257.57C222.53 257.38 221.78 256.98 221.33 256.73L220.53 256.23L221.18 254.92C221.53 254.2 221.88 253.45 221.98 253.25C222.1 253.05 222.45 252.8 222.78 252.72C223.1 252.62 222.45 252.55 221.25 252.52C219.38 252.5 219.2 252.55 219.75 252.82C220.25 253.07 220.4 253.35 220.45 254.22C220.58 256.05 220.15 256.07 218.48 254.3C217.68 253.45 217 252.62 217 252.52C217 252.4 217.4 252.05 217.88 251.75C219.5 250.75 219.95 249.45 219 248.5C218.48 247.97 216.85 247.82 215.85 248.25ZM217.53 248.77C218.1 249.35 218.05 250.38 217.38 251.42C216.85 252.22 216.62 252.15 216.15 251C215.65 249.72 215.65 249.15 216.15 248.65C216.65 248.12 216.9 248.15 217.53 248.77ZM217.35 255.47C218.95 257.07 219 257.2 218.45 257.32C216.2 257.95 214.38 256.42 215.03 254.5C215.18 254.07 215.38 253.75 215.48 253.75C215.55 253.75 216.4 254.52 217.35 255.47ZM253.12 248.52C251.03 249.57 250 251.07 250 253.17C250 255.57 251.8 257.77 254.08 258.1C259.23 258.88 262.55 253.07 259.05 249.42C257.65 247.95 255.05 247.55 253.12 248.52ZM256.53 249.07C258.65 250.47 259.15 254.88 257.43 256.9C256.62 257.82 254.9 258 253.93 257.25C252.5 256.12 251.75 253.57 252.12 251.1C252.48 248.72 254.58 247.75 256.53 249.07ZM283.88 248.52C281.78 249.57 280.75 251.07 280.75 253.17C280.75 255.57 282.55 257.75 284.8 258.1C285.68 258.25 286 258.45 286.55 259.25C287.78 261 291.05 262.3 292.38 261.57C292.73 261.38 292.68 261.32 292.05 261.3C291 261.27 290 260.7 288.93 259.52C287.82 258.3 287.78 257.95 288.65 257.5C289.38 257.1 290.5 255.72 290.95 254.67C291.9 252.47 290.57 249.32 288.28 248.35C287.07 247.85 285.07 247.92 283.88 248.52ZM287.28 249.07C289.4 250.47 289.9 254.88 288.18 256.9C287.38 257.82 285.65 258 284.68 257.25C283.25 256.12 282.5 253.57 282.88 251.1C283.23 248.72 285.32 247.75 287.28 249.07ZM341.38 248.3C339.03 249.6 339.2 251.82 341.75 253.12C344.3 254.42 345.23 255.85 344.4 257.12C343.53 258.45 341.53 257.67 340.23 255.57C339.58 254.52 339.38 254.8 339.62 256.4C339.78 257.4 339.9 257.57 340.7 257.92C341.93 258.42 344.28 258.25 345.2 257.57C345.58 257.3 346.03 256.62 346.23 256.07C346.73 254.67 346.12 253.7 344.03 252.47C341.58 251.05 340.8 249.95 341.58 248.88C342.38 247.8 344.9 248.72 345.4 250.3C345.65 251.15 346.03 250.75 345.95 249.7C345.9 248.85 345.75 248.57 345.25 248.32C344.48 247.92 342.05 247.92 341.38 248.3ZM1114.35 248.25C1112.88 248.85 1112.38 250.65 1113.23 252.3L1113.67 253.22L1112.85 254.02C1111.33 255.5 1111.3 256.82 1112.8 257.75C1113.8 258.35 1114.95 258.38 1116.75 257.85C1117.75 257.55 1118.23 257.52 1118.67 257.73C1119 257.88 1119.98 258 1120.83 257.98L1122.38 257.95L1121.5 257.57C1121.03 257.38 1120.28 256.98 1119.83 256.73L1119.03 256.23L1119.67 254.92C1120.03 254.2 1120.38 253.45 1120.48 253.25C1120.6 253.05 1120.95 252.8 1121.28 252.72C1121.6 252.62 1120.95 252.55 1119.75 252.52C1117.88 252.5 1117.7 252.55 1118.25 252.82C1118.75 253.07 1118.9 253.35 1118.95 254.22C1119.08 256.05 1118.65 256.07 1116.98 254.3C1116.17 253.45 1115.5 252.62 1115.5 252.52C1115.5 252.4 1115.9 252.05 1116.38 251.75C1118 250.75 1118.45 249.45 1117.5 248.5C1116.98 247.97 1115.35 247.82 1114.35 248.25ZM1116.03 248.77C1116.6 249.35 1116.55 250.38 1115.88 251.42C1115.35 252.22 1115.12 252.15 1114.65 251C1114.15 249.72 1114.15 249.15 1114.65 248.65C1115.15 248.12 1115.4 248.15 1116.03 248.77ZM1115.85 255.47C1117.45 257.07 1117.5 257.2 1116.95 257.32C1114.7 257.95 1112.88 256.42 1113.53 254.5C1113.67 254.07 1113.88 253.75 1113.98 253.75C1114.05 253.75 1114.9 254.52 1115.85 255.47ZM1207.12 248.3C1204.78 249.6 1204.95 251.82 1207.5 253.12C1210.05 254.42 1210.98 255.85 1210.15 257.12C1209.28 258.45 1207.28 257.67 1205.98 255.57C1205.33 254.52 1205.12 254.8 1205.38 256.4C1205.53 257.4 1205.65 257.57 1206.45 257.92C1207.67 258.42 1210.03 258.25 1210.95 257.57C1211.33 257.3 1211.78 256.62 1211.98 256.07C1212.48 254.67 1211.88 253.7 1209.78 252.47C1207.33 251.05 1206.55 249.95 1207.33 248.88C1208.12 247.8 1210.65 248.72 1211.15 250.3C1211.4 251.15 1211.78 250.75 1211.7 249.7C1211.65 248.85 1211.5 248.57 1211 248.32C1210.23 247.92 1207.8 247.92 1207.12 248.3ZM236.25 248.47L236.88 248.65L236.95 253.05L237 257.45L236.33 257.7C235.78 257.9 236.4 257.98 238.95 257.98C242.73 258 243.73 257.73 244.53 256.4C245.5 254.8 244.78 253.12 242.95 252.85L241.95 252.67L242.83 251.9C244.12 250.8 244.25 249.95 243.3 249L242.55 248.25L239.08 248.27C237.18 248.3 235.9 248.38 236.25 248.47ZM241.6 249.05C242.12 249.8 242.1 251.45 241.58 252.05C241.3 252.35 240.83 252.5 240.08 252.5L239 252.5L239 250.67C239 249.65 239.08 248.75 239.18 248.67C239.25 248.57 239.75 248.5 240.28 248.5C240.98 248.5 241.33 248.65 241.6 249.05ZM242.43 253.85C243.03 254.57 243.2 255.92 242.75 256.75C242.3 257.6 239.93 258.07 239.3 257.45C239.12 257.27 239 256.35 239 255.05L239 252.95L240.43 253.05C241.58 253.15 241.95 253.3 242.43 253.85ZM265.38 248.42C266.43 248.7 266.5 248.95 266.5 252.25C266.5 255.72 266.73 256.42 268.3 257.57C269.28 258.3 271.6 258.42 272.75 257.82C274.23 257.07 274.75 255.65 274.75 252.42C274.75 249.57 274.95 248.85 275.82 248.5C276.2 248.35 275.78 248.27 274.38 248.3C273.28 248.3 272.6 248.38 272.88 248.42C274.1 248.72 274.25 249.15 274.25 252.3C274.25 255.65 273.98 256.48 272.73 257.15C271.7 257.67 270 257.42 269.32 256.67C268.38 255.65 268.25 255.07 268.25 252.05C268.25 248.95 268.32 248.67 269.38 248.42C269.65 248.38 268.75 248.3 267.38 248.3C266 248.3 265.1 248.38 265.38 248.42ZM296.12 248.42C297.18 248.7 297.25 248.95 297.25 252.25C297.25 255.72 297.48 256.42 299.05 257.57C300.03 258.3 302.35 258.42 303.5 257.82C304.98 257.07 305.5 255.65 305.5 252.42C305.5 249.57 305.7 248.85 306.57 248.5C306.95 248.35 306.53 248.27 305.12 248.3C304.03 248.3 303.35 248.38 303.62 248.42C304.85 248.72 305 249.15 305 252.3C305 255.65 304.73 256.48 303.48 257.15C302.45 257.67 300.75 257.42 300.07 256.67C299.12 255.65 299 255.07 299 252.05C299 248.95 299.07 248.67 300.12 248.42C300.4 248.38 299.5 248.3 298.12 248.3C296.75 248.3 295.85 248.38 296.12 248.42ZM312 248.47L312.62 248.65L312.7 253.05L312.75 257.45L312.08 257.7C311.55 257.9 312.38 257.98 315.4 257.98L319.43 258L319.58 256.67C319.7 255.42 319.55 254.77 319.33 255.45C318.8 256.9 316.58 258.1 315.38 257.55C314.78 257.27 314.75 257.15 314.75 255.22L314.75 253.2L316.45 253.27C317.8 253.35 318.12 253.3 318.12 253C318.12 252.7 317.8 252.65 316.43 252.72L314.73 252.8L314.8 250.72L314.88 248.62L315.95 248.55C316.95 248.47 317.12 248.55 318.03 249.5L319 250.52L319 249.38L319 248.25L315.2 248.27C313.1 248.3 311.65 248.38 312 248.47ZM1134.75 248.47L1135.38 248.65L1135.45 253.05L1135.5 257.45L1134.83 257.7C1134.3 257.9 1135.12 257.98 1138.15 257.98L1142.17 258L1142.33 256.67C1142.45 255.42 1142.3 254.77 1142.08 255.45C1141.55 256.9 1139.33 258.1 1138.12 257.55C1137.53 257.27 1137.5 257.15 1137.5 255.22L1137.5 253.2L1139.2 253.27C1140.55 253.35 1140.88 253.3 1140.88 253C1140.88 252.7 1140.55 252.65 1139.17 252.72L1137.48 252.8L1137.55 250.72L1137.62 248.62L1138.7 248.55C1139.7 248.47 1139.88 248.55 1140.78 249.5L1141.75 250.52L1141.75 249.38L1141.75 248.25L1137.95 248.27C1135.85 248.3 1134.4 248.38 1134.75 248.47ZM1147.2 248.5C1147.6 248.67 1148.35 250 1149.98 253.38C1151.2 255.92 1152.33 258 1152.45 258C1152.58 258 1152.98 257.25 1153.33 256.3C1155.67 250.02 1156.05 249.22 1156.85 248.72L1157.62 248.25L1155.75 248.27C1154.2 248.27 1154 248.32 1154.58 248.55C1155.03 248.7 1155.25 248.97 1155.25 249.32C1155.25 249.75 1153.38 255.12 1153.12 255.45C1153.03 255.57 1150.28 249.77 1150.2 249.3C1150.15 249.07 1150.4 248.75 1150.75 248.57C1151.3 248.3 1151.1 248.25 1149 248.27C1147.33 248.27 1146.8 248.35 1147.2 248.5ZM1162.5 248.47L1163.12 248.65L1163.2 253.05L1163.25 257.45L1162.58 257.7C1162.05 257.9 1162.88 257.98 1165.9 257.98L1169.92 258L1170.08 256.67C1170.2 255.42 1170.05 254.77 1169.83 255.45C1169.3 256.9 1167.08 258.1 1165.88 257.55C1165.28 257.27 1165.25 257.15 1165.25 255.22L1165.25 253.2L1166.95 253.27C1168.3 253.35 1168.62 253.3 1168.62 253C1168.62 252.7 1168.3 252.65 1166.92 252.72L1165.23 252.8L1165.3 250.72L1165.38 248.62L1166.45 248.55C1167.45 248.47 1167.62 248.55 1168.53 249.5L1169.5 250.52L1169.5 249.38L1169.5 248.25L1165.7 248.27C1163.6 248.3 1162.15 248.38 1162.5 248.47ZM1175.5 248.7L1176.38 249.12L1176.45 252.38C1176.55 256.45 1176.42 257.15 1175.55 257.62C1174.9 257.98 1174.95 257.98 1176.75 257.98C1178.08 257.98 1178.48 257.9 1178.08 257.75C1177.12 257.38 1176.98 256.7 1177.05 253.27L1177.12 250.07L1180.62 254.15C1182.55 256.38 1184.2 258.23 1184.33 258.23C1184.42 258.25 1184.5 256.32 1184.5 253.97C1184.5 249.52 1184.62 248.88 1185.58 248.5C1185.98 248.35 1185.58 248.27 1184.25 248.27C1182.92 248.27 1182.53 248.35 1182.92 248.5C1183.85 248.88 1184.03 249.57 1183.95 252.5L1183.88 255.25L1180.88 251.75L1177.88 248.25L1176.25 248.25L1174.62 248.25L1175.5 248.7Z"/></svg>