<svg xmlns="http://www.w3.org/2000/svg" viewBox="0 0 120 160" style="color:#2b1a16"><path fill="none" stroke="currentColor" stroke-width="1.6" stroke-linecap="round" stroke-linejoin="round" style="fill:var(--accent,#d9662e);fill-opacity:.22" d="M26 124 C26 102 42 94 60 99 C78 94 94 102 94 124 C94 146 78 152 60 148 C42 152 26 146 26 124 Z"/><path fill="none" stroke="currentColor" stroke-width="1.6" stroke-linecap="round" stroke-linejoin="round" d="M60 99 C51 112 51 136 60 148 M60 99 C69 112 69 136 60 148 M45 97 C36 110 36 138 47 150 M75 97 C84 110 84 138 73 150"/><path fill="none" stroke="currentColor" stroke-width="1.6" stroke-linecap="round" stroke-linejoin="round" d="M58 99 C58 90 60 84 67 79 M63 90 C72 86 78 92 74 96 C70 100 66 94 70 91"/><path fill="none" stroke="currentColor" stroke-width="1.6" stroke-linecap="round" stroke-linejoin="round" d="M67 82 C78 70 92 70 100 76 C90 84 78 86 67 82 Z M70 81 L95 76"/></svg>