<svg xmlns="http://www.w3.org/2000/svg" viewBox="0 0 120 160" style="color:#2b1a16"><path fill="none" stroke="currentColor" stroke-width="1.6" stroke-linecap="round" stroke-linejoin="round" d="M58 156 C62 120 56 80 64 18 M60.2 139.4 L55.2 137.4 M62.2 121.5 L67.2 119.5 M63.5 104.9 L58.5 102.9 M64 89.8 L69 87.8 M63.8 76 L58.8 74 M64.7 62.2 L69.7 60.2 M63.6 49.7 L58.6 47.7 M62.2 37.3 L67.2 35.3"/><ellipse cx="44.9" cy="137.4" rx="10.3" ry="8.8" fill="none" stroke="currentColor" stroke-width="1.6" stroke-linecap="round" stroke-linejoin="round"/><ellipse cx="76.7" cy="119.5" rx="9.5" ry="8.2" fill="none" stroke="currentColor" stroke-width="1.6" stroke-linecap="round" stroke-linejoin="round"/><ellipse cx="49.7" cy="102.9" rx="8.8" ry="7.6" fill="none" stroke="currentColor" stroke-width="1.6" stroke-linecap="round" stroke-linejoin="round"/><ellipse cx="77.1" cy="87.8" rx="8.1" ry="7" fill="none" stroke="currentColor" stroke-width="1.6" stroke-linecap="round" stroke-linejoin="round"/><ellipse cx="51.3" cy="74" rx="7.5" ry="6.5" fill="none" stroke="currentColor" stroke-width="1.6" stroke-linecap="round" stroke-linejoin="round"/><ellipse cx="76.6" cy="60.2" rx="6.9" ry="6" fill="none" stroke="currentColor" stroke-width="1.6" stroke-linecap="round" stroke-linejoin="round"/><ellipse cx="52.2" cy="47.7" rx="6.4" ry="5.5" fill="none" stroke="currentColor" stroke-width="1.6" stroke-linecap="round" stroke-linejoin="round"/><ellipse cx="73.1" cy="35.3" rx="5.8" ry="5" fill="none" stroke="currentColor" stroke-width="1.6" stroke-linecap="round" stroke-linejoin="round"/><circle cx="64" cy="14" r="4" fill="none" stroke="currentColor" stroke-width="1.6" stroke-linecap="round" stroke-linejoin="round"/></svg>